<?xml version="1.0" encoding="UTF-8"?>
<svg id="Layer_1" data-name="Layer 1" xmlns="http://www.w3.org/2000/svg" viewBox="0 0 16 16">
  <defs>
    <style>
      .cls-1 {
        fill: #c285fd;
      }

      .cls-2 {
        fill: #67a8fd;
      }

      .cls-3 {
        fill: #5f63f1;
      }
    </style>
  </defs>
  <path class="cls-3" d="M10.09,8.88c0,.36-.02.67-.05.97s-.1.55-.18.8-.21.49-.36.71-.35.45-.58.67c-.76.72-1.78,1.07-3.05,1.07-1.35,0-2.36-.34-3.01-1.02-.66-.67-.99-1.75-.99-3.2V3.44h2.44v5.1c0,.33,0,.61.03.85.02.24.07.45.12.63.07.18.15.34.26.46.12.12.27.23.48.31.12.07.25.11.37.13s.25.04.36.04c.25,0,.49-.03.69-.1s.39-.18.54-.36.27-.41.35-.73.12-.73.12-1.23V3.45h2.44v5.44h.01Z"/>
  <path class="cls-1" d="M14.11,4.01c0,.33-.11.6-.33.81s-.49.33-.8.33-.58-.11-.8-.33-.33-.49-.33-.8c0-.15.03-.3.09-.43s.14-.25.24-.36.22-.18.36-.24.28-.09.44-.09c.15,0,.3.03.44.09.14.06.26.14.37.24.11.11.18.22.24.36s.09.28.09.43h0Z"/>
  <rect class="cls-2" x="11.85" y="6.28" width="2.27" height="6.39"/>
</svg>