<?xml version="1.0" encoding="UTF-8"?>
<svg id="Layer_1" data-name="Layer 1" xmlns="http://www.w3.org/2000/svg" xmlns:xlink="http://www.w3.org/1999/xlink" viewBox="0 0 16 16">
  <defs>
    <style>
      .cls-1 {
        fill: #c285fd;
      }

      .cls-2 {
        fill: none;
      }

      .cls-3 {
        fill: #67a8fd;
      }

      .cls-4 {
        fill: #5f63f1;
      }

      .cls-5 {
        clip-path: url(#clippath);
      }
    </style>
    <clipPath id="clippath">
      <rect class="cls-2" width="16" height="16"/>
    </clipPath>
  </defs>
  <g class="cls-5">
    <path d="M16,0H0v16h16V0Z"/>
  </g>
  <path class="cls-4" d="M9.96,9.01c0,.33-.02.62-.05.89-.03.27-.09.51-.17.74-.08.23-.19.45-.33.65s-.32.41-.53.62c-.7.66-1.64.99-2.81.99-1.24,0-2.17-.31-2.77-.94-.61-.62-.91-1.61-.91-2.95v-5.01h2.25v4.7c0,.3,0,.56.03.78.02.22.06.41.11.58.06.17.14.31.24.42.11.11.25.21.44.29.11.06.23.1.34.12s.23.04.33.04c.23,0,.45-.03.64-.09.19-.06.36-.17.5-.33.14-.16.25-.38.32-.67.07-.29.11-.67.11-1.13v-4.7h2.25v5.01Z"/>
  <path class="cls-1" d="M13.8,4.5c0,.34-.11.62-.34.84s-.51.34-.83.34-.6-.11-.83-.34c-.23-.23-.34-.51-.34-.83,0-.16.03-.31.09-.45s.14-.26.25-.37c.11-.11.23-.19.37-.25.14-.06.29-.09.46-.09.16,0,.31.03.46.09.14.06.27.15.38.25.11.11.19.23.25.37s.09.29.09.45Z"/>
  <rect class="cls-3" x="11.58" y="6.62" width="2.09" height="5.89"/>
</svg>